<mxfile host="Electron" agent="Mozilla/5.0 (X11; Linux x86_64) AppleWebKit/537.36 (KHTML, like Gecko) draw.io/24.7.17 Chrome/128.0.6613.36 Electron/32.0.1 Safari/537.36" version="24.7.17">
  <diagram name="Page-1" id="jcP30ywYOVt4yHWAheL2">
    <mxGraphModel dx="1687" dy="1389" grid="0" gridSize="10" guides="1" tooltips="1" connect="1" arrows="1" fold="1" page="0" pageScale="1" pageWidth="850" pageHeight="1100" math="0" shadow="0">
      <root>
        <mxCell id="0" />
        <mxCell id="1" parent="0" />
        <mxCell id="-gAN6aJEYJqa4c5bWa4W-1" value="Classe Carteira" style="rounded=0;whiteSpace=wrap;html=1;strokeWidth=2;fontSize=16;" vertex="1" parent="1">
          <mxGeometry x="26.5" y="-120" width="194" height="60" as="geometry" />
        </mxCell>
        <mxCell id="-gAN6aJEYJqa4c5bWa4W-2" value="" style="ellipse;html=1;shape=startState;fillColor=#000000;strokeColor=#ff0000;" vertex="1" parent="1">
          <mxGeometry x="108.5" y="-39" width="30" height="30" as="geometry" />
        </mxCell>
        <mxCell id="-gAN6aJEYJqa4c5bWa4W-3" value="" style="edgeStyle=orthogonalEdgeStyle;html=1;verticalAlign=bottom;endArrow=open;endSize=8;strokeColor=#ff0000;rounded=0;fontSize=12;curved=1;" edge="1" source="-gAN6aJEYJqa4c5bWa4W-2" parent="1">
          <mxGeometry relative="1" as="geometry">
            <mxPoint x="123.5" y="51" as="targetPoint" />
          </mxGeometry>
        </mxCell>
        <mxCell id="-gAN6aJEYJqa4c5bWa4W-4" value="Carteira Criada" style="swimlane;fontStyle=0;childLayout=stackLayout;horizontal=1;startSize=26;fillColor=none;horizontalStack=0;resizeParent=1;resizeParentMax=0;resizeLast=0;collapsible=1;marginBottom=0;whiteSpace=wrap;html=1;rounded=1;" vertex="1" parent="1">
          <mxGeometry x="44" y="51" width="159" height="61" as="geometry" />
        </mxCell>
        <mxCell id="-gAN6aJEYJqa4c5bWa4W-5" value="Carteira criada no cadastro do Usuario" style="text;strokeColor=none;fillColor=none;align=left;verticalAlign=top;spacingLeft=4;spacingRight=4;overflow=hidden;rotatable=0;points=[[0,0.5],[1,0.5]];portConstraint=eastwest;whiteSpace=wrap;html=1;" vertex="1" parent="-gAN6aJEYJqa4c5bWa4W-4">
          <mxGeometry y="26" width="159" height="35" as="geometry" />
        </mxCell>
        <mxCell id="-gAN6aJEYJqa4c5bWa4W-8" style="edgeStyle=none;curved=1;rounded=0;orthogonalLoop=1;jettySize=auto;html=1;fontSize=12;startSize=8;endSize=8;exitX=0.493;exitY=1.044;exitDx=0;exitDy=0;exitPerimeter=0;entryX=0.5;entryY=0;entryDx=0;entryDy=0;" edge="1" parent="1" source="-gAN6aJEYJqa4c5bWa4W-5" target="-gAN6aJEYJqa4c5bWa4W-9">
          <mxGeometry relative="1" as="geometry">
            <mxPoint x="-16.5" y="206" as="sourcePoint" />
            <mxPoint x="109" y="206" as="targetPoint" />
          </mxGeometry>
        </mxCell>
        <mxCell id="-gAN6aJEYJqa4c5bWa4W-23" value="[recebe&lt;div&gt;requisição]&lt;/div&gt;" style="edgeLabel;html=1;align=center;verticalAlign=middle;resizable=0;points=[];fontSize=12;fontFamily=Helvetica;fontColor=default;labelBackgroundColor=default;" vertex="1" connectable="0" parent="-gAN6aJEYJqa4c5bWa4W-8">
          <mxGeometry x="-0.1102" y="2" relative="1" as="geometry">
            <mxPoint x="-4" y="-3" as="offset" />
          </mxGeometry>
        </mxCell>
        <mxCell id="-gAN6aJEYJqa4c5bWa4W-21" style="edgeStyle=none;curved=0;rounded=1;orthogonalLoop=1;jettySize=auto;html=1;exitX=0.5;exitY=1;exitDx=0;exitDy=0;entryX=0;entryY=0.5;entryDx=0;entryDy=0;fontSize=12;startSize=8;endSize=8;" edge="1" parent="1" source="-gAN6aJEYJqa4c5bWa4W-9" target="-gAN6aJEYJqa4c5bWa4W-17">
          <mxGeometry relative="1" as="geometry">
            <Array as="points">
              <mxPoint x="125" y="312" />
            </Array>
          </mxGeometry>
        </mxCell>
        <mxCell id="-gAN6aJEYJqa4c5bWa4W-9" value="" style="ellipse;whiteSpace=wrap;html=1;aspect=fixed;strokeWidth=2;" vertex="1" parent="1">
          <mxGeometry x="108" y="190" width="31" height="31" as="geometry" />
        </mxCell>
        <mxCell id="-gAN6aJEYJqa4c5bWa4W-33" style="edgeStyle=none;shape=connector;curved=0;rounded=1;orthogonalLoop=1;jettySize=auto;html=1;exitX=1;exitY=0.5;exitDx=0;exitDy=0;entryX=0;entryY=0.5;entryDx=0;entryDy=0;strokeColor=default;align=center;verticalAlign=middle;fontFamily=Helvetica;fontSize=12;fontColor=default;labelBackgroundColor=default;startSize=8;endArrow=classic;endSize=8;" edge="1" parent="1" source="-gAN6aJEYJqa4c5bWa4W-13" target="-gAN6aJEYJqa4c5bWa4W-30">
          <mxGeometry relative="1" as="geometry" />
        </mxCell>
        <mxCell id="-gAN6aJEYJqa4c5bWa4W-34" value="[sincronização&lt;div&gt;concluída]&lt;/div&gt;" style="edgeLabel;html=1;align=center;verticalAlign=middle;resizable=0;points=[];fontSize=12;fontFamily=Helvetica;fontColor=default;labelBackgroundColor=default;" vertex="1" connectable="0" parent="-gAN6aJEYJqa4c5bWa4W-33">
          <mxGeometry x="-0.1244" y="-1" relative="1" as="geometry">
            <mxPoint x="2" y="-19" as="offset" />
          </mxGeometry>
        </mxCell>
        <mxCell id="-gAN6aJEYJqa4c5bWa4W-13" value="Sincronizando Carteira" style="swimlane;fontStyle=0;childLayout=stackLayout;horizontal=1;startSize=26;fillColor=none;horizontalStack=0;resizeParent=1;resizeParentMax=0;resizeLast=0;collapsible=1;marginBottom=0;whiteSpace=wrap;html=1;rounded=1;" vertex="1" parent="1">
          <mxGeometry x="327" y="174" width="159" height="63" as="geometry" />
        </mxCell>
        <mxCell id="-gAN6aJEYJqa4c5bWa4W-14" value="sincronizarCarteira()" style="text;strokeColor=none;fillColor=none;align=left;verticalAlign=top;spacingLeft=4;spacingRight=4;overflow=hidden;rotatable=0;points=[[0,0.5],[1,0.5]];portConstraint=eastwest;whiteSpace=wrap;html=1;" vertex="1" parent="-gAN6aJEYJqa4c5bWa4W-13">
          <mxGeometry y="26" width="159" height="37" as="geometry" />
        </mxCell>
        <mxCell id="-gAN6aJEYJqa4c5bWa4W-15" style="edgeStyle=none;curved=1;rounded=0;orthogonalLoop=1;jettySize=auto;html=1;exitX=1;exitY=0.5;exitDx=0;exitDy=0;entryX=-0.002;entryY=0.14;entryDx=0;entryDy=0;entryPerimeter=0;fontSize=12;startSize=8;endSize=8;" edge="1" parent="1" source="-gAN6aJEYJqa4c5bWa4W-9" target="-gAN6aJEYJqa4c5bWa4W-14">
          <mxGeometry relative="1" as="geometry" />
        </mxCell>
        <mxCell id="-gAN6aJEYJqa4c5bWa4W-16" value="[sincronizar carteira]" style="edgeLabel;html=1;align=center;verticalAlign=middle;resizable=0;points=[];fontSize=12;" vertex="1" connectable="0" parent="-gAN6aJEYJqa4c5bWa4W-15">
          <mxGeometry x="-0.0395" relative="1" as="geometry">
            <mxPoint y="-10" as="offset" />
          </mxGeometry>
        </mxCell>
        <mxCell id="-gAN6aJEYJqa4c5bWa4W-35" style="edgeStyle=none;shape=connector;curved=0;rounded=1;orthogonalLoop=1;jettySize=auto;html=1;exitX=1;exitY=0.5;exitDx=0;exitDy=0;entryX=0;entryY=0.5;entryDx=0;entryDy=0;strokeColor=default;align=center;verticalAlign=middle;fontFamily=Helvetica;fontSize=12;fontColor=default;labelBackgroundColor=default;startSize=8;endArrow=classic;endSize=8;" edge="1" parent="1" source="-gAN6aJEYJqa4c5bWa4W-17" target="-gAN6aJEYJqa4c5bWa4W-31">
          <mxGeometry relative="1" as="geometry" />
        </mxCell>
        <mxCell id="-gAN6aJEYJqa4c5bWa4W-17" value="Criando Novo Grupo" style="swimlane;fontStyle=0;childLayout=stackLayout;horizontal=1;startSize=26;fillColor=none;horizontalStack=0;resizeParent=1;resizeParentMax=0;resizeLast=0;collapsible=1;marginBottom=0;whiteSpace=wrap;html=1;rounded=1;" vertex="1" parent="1">
          <mxGeometry x="327" y="280" width="159" height="63" as="geometry" />
        </mxCell>
        <mxCell id="-gAN6aJEYJqa4c5bWa4W-18" value="novoGrupo()" style="text;strokeColor=none;fillColor=none;align=left;verticalAlign=top;spacingLeft=4;spacingRight=4;overflow=hidden;rotatable=0;points=[[0,0.5],[1,0.5]];portConstraint=eastwest;whiteSpace=wrap;html=1;" vertex="1" parent="-gAN6aJEYJqa4c5bWa4W-17">
          <mxGeometry y="26" width="159" height="37" as="geometry" />
        </mxCell>
        <mxCell id="-gAN6aJEYJqa4c5bWa4W-22" value="[novo grupo]" style="edgeLabel;html=1;align=center;verticalAlign=middle;resizable=0;points=[];fontSize=12;" vertex="1" connectable="0" parent="1">
          <mxGeometry x="223.9981342251054" y="300.9962511777154" as="geometry" />
        </mxCell>
        <mxCell id="-gAN6aJEYJqa4c5bWa4W-37" style="edgeStyle=none;shape=connector;curved=0;rounded=1;orthogonalLoop=1;jettySize=auto;html=1;exitX=1;exitY=0.5;exitDx=0;exitDy=0;entryX=0;entryY=0.5;entryDx=0;entryDy=0;strokeColor=default;align=center;verticalAlign=middle;fontFamily=Helvetica;fontSize=12;fontColor=default;labelBackgroundColor=default;startSize=8;endArrow=classic;endSize=8;" edge="1" parent="1" source="-gAN6aJEYJqa4c5bWa4W-24" target="-gAN6aJEYJqa4c5bWa4W-32">
          <mxGeometry relative="1" as="geometry" />
        </mxCell>
        <mxCell id="-gAN6aJEYJqa4c5bWa4W-38" value="[remoção&lt;div&gt;concluída]&lt;/div&gt;" style="edgeLabel;html=1;align=center;verticalAlign=middle;resizable=0;points=[];fontSize=12;fontFamily=Helvetica;fontColor=default;labelBackgroundColor=default;" vertex="1" connectable="0" parent="-gAN6aJEYJqa4c5bWa4W-37">
          <mxGeometry x="-0.1044" y="-1" relative="1" as="geometry">
            <mxPoint x="5" y="-17" as="offset" />
          </mxGeometry>
        </mxCell>
        <mxCell id="-gAN6aJEYJqa4c5bWa4W-24" value="Removendo Grupo" style="swimlane;fontStyle=0;childLayout=stackLayout;horizontal=1;startSize=26;fillColor=none;horizontalStack=0;resizeParent=1;resizeParentMax=0;resizeLast=0;collapsible=1;marginBottom=0;whiteSpace=wrap;html=1;rounded=1;" vertex="1" parent="1">
          <mxGeometry x="327" y="383" width="159" height="63" as="geometry" />
        </mxCell>
        <mxCell id="-gAN6aJEYJqa4c5bWa4W-25" value="apagarGrupo()" style="text;strokeColor=none;fillColor=none;align=left;verticalAlign=top;spacingLeft=4;spacingRight=4;overflow=hidden;rotatable=0;points=[[0,0.5],[1,0.5]];portConstraint=eastwest;whiteSpace=wrap;html=1;" vertex="1" parent="-gAN6aJEYJqa4c5bWa4W-24">
          <mxGeometry y="26" width="159" height="37" as="geometry" />
        </mxCell>
        <mxCell id="-gAN6aJEYJqa4c5bWa4W-28" style="edgeStyle=none;shape=connector;curved=0;rounded=1;orthogonalLoop=1;jettySize=auto;html=1;exitX=0.5;exitY=1;exitDx=0;exitDy=0;entryX=-0.006;entryY=0.144;entryDx=0;entryDy=0;entryPerimeter=0;strokeColor=default;align=center;verticalAlign=middle;fontFamily=Helvetica;fontSize=12;fontColor=default;labelBackgroundColor=default;startSize=8;endArrow=classic;endSize=8;" edge="1" parent="1" source="-gAN6aJEYJqa4c5bWa4W-9" target="-gAN6aJEYJqa4c5bWa4W-25">
          <mxGeometry relative="1" as="geometry">
            <Array as="points">
              <mxPoint x="125" y="414" />
            </Array>
          </mxGeometry>
        </mxCell>
        <mxCell id="-gAN6aJEYJqa4c5bWa4W-29" value="[remover grupo]" style="edgeLabel;html=1;align=center;verticalAlign=middle;resizable=0;points=[];fontSize=12;" vertex="1" connectable="0" parent="1">
          <mxGeometry x="225.9981342251054" y="399.9962511777154" as="geometry" />
        </mxCell>
        <mxCell id="-gAN6aJEYJqa4c5bWa4W-30" value="" style="ellipse;html=1;shape=endState;fillColor=#000000;strokeColor=#ff0000;fontFamily=Helvetica;fontSize=12;fontColor=default;labelBackgroundColor=default;" vertex="1" parent="1">
          <mxGeometry x="609" y="190" width="30" height="30" as="geometry" />
        </mxCell>
        <mxCell id="-gAN6aJEYJqa4c5bWa4W-31" value="" style="ellipse;html=1;shape=endState;fillColor=#000000;strokeColor=#ff0000;fontFamily=Helvetica;fontSize=12;fontColor=default;labelBackgroundColor=default;" vertex="1" parent="1">
          <mxGeometry x="609" y="296.5" width="30" height="30" as="geometry" />
        </mxCell>
        <mxCell id="-gAN6aJEYJqa4c5bWa4W-32" value="" style="ellipse;html=1;shape=endState;fillColor=#000000;strokeColor=#ff0000;fontFamily=Helvetica;fontSize=12;fontColor=default;labelBackgroundColor=default;" vertex="1" parent="1">
          <mxGeometry x="609" y="399.5" width="30" height="30" as="geometry" />
        </mxCell>
        <mxCell id="-gAN6aJEYJqa4c5bWa4W-36" value="[criação&lt;div&gt;concluída]&lt;/div&gt;" style="edgeLabel;html=1;align=center;verticalAlign=middle;resizable=0;points=[];fontSize=12;fontFamily=Helvetica;fontColor=default;labelBackgroundColor=default;" vertex="1" connectable="0" parent="1">
          <mxGeometry x="543.9997739668532" y="293.00110674205314" as="geometry" />
        </mxCell>
      </root>
    </mxGraphModel>
  </diagram>
</mxfile>
